<?xml version="1.0" encoding="UTF-8"?> <svg xmlns="http://www.w3.org/2000/svg" id="Layer_1" viewBox="0 0 250 250"><path d="M185.7633,107.5225c0-5.3491-.0567-10.6998,.0318-16.0466,.028-1.7422,.387-3.489,.6833-5.2186,.2706-1.5734,1.1859-2.747,2.5827-3.526,.8035-.4492,1.5911-.9425,2.4391-1.293,.811-.3349,1.0688-.8984,1.2267-1.7059,.8088-4.0999,1.6152-8.1997,2.5593-12.271,.4701-2.0304,1.2139-3.9985,1.8722-5.9822,.1814-.5505,.4936-1.0568,.7566-1.5787,.9698-1.9344,2.5661-3.0379,4.6515-3.4845,.328-.0701,.6606-.1609,.9909-.1583,.9282,.013,1.3054-.5713,1.5782-1.332,.6478-1.8123,1.2487-3.6455,1.9871-5.4188,1.3908-3.3495,3.1254-6.4886,6.0611-8.7839,.5253-.4102,1.0582-.836,1.6485-1.1295,3.1337-1.5579,5.3567-.7166,7.0604,2.0461,.7823,1.2697,1.3703,2.6951,1.8201,4.1206,.7566,2.3966,1.0794,4.871,1.1912,7.4078,.1633,3.7156-.3696,7.335-.9236,10.9753-.4263,2.8093-.749,5.637-1.0219,8.4645-.3613,3.7441-.7173,7.496-.5434,11.2687,.0234,.5011-.0257,1.0153,.065,1.5008,.523,2.7912,1.0688,5.5795,1.6228,8.3656,.229,1.1451,.5223,2.2751,.7407,3.4202,.3621,1.8896,.6659,3.7906,1.0302,5.6779,.4603,2.3968,.616,4.8117,.5306,7.2471-.0265,.7528-.133,1.5185-.037,2.2562,.1905,1.4694-.1739,2.8352-.647,4.1776-1.3628,3.8639-2.7536,7.7142-4.1504,11.5652-1.8231,5.0294-3.7755,10.0119-5.4451,15.0905-.9879,3.0068-1.5911,6.1435-2.2675,9.2433-.6576,3.0173-1.1595,6.071-1.7914,9.0959-.1429,.6856-.1663,1.2698,.1089,1.9342,.6946,1.6719,.7619,3.4535,.4218,5.1874-.2109,1.0756-.003,1.9735,.421,2.8956,1.0166,2.2018,2.0385,4.4005,3.0581,6.6001,1.9735,4.2531,3.6198,8.6356,5.1435,13.0625,3.0211,8.7761,5.9493,17.5863,9.0074,26.3496,1.5707,4.4973,3.3386,8.9243,5.0082,13.3876,.3507,.9395,.6788,1.8874,.975,2.8458,.1459,.4747,.2419,.9788,.2729,1.4716,.0544,.8496-.4029,1.418-1.1489,1.774-.6531,.3114-1.6077,.1761-2.0574-.4339-.4391-.5948-.8004-1.2751-1.0688-1.966-1.5986-4.136-3.263-8.2516-4.7142-12.4367-3.2063-9.2433-6.2826-18.5288-9.4443-27.788-2.5404-7.4383-5.3128-14.7919-8.3937-22.0254-.6788-1.5918-1.1338-3.108-.6455-4.8397,.2993-1.062,.2555-2.2018-.2804-3.1889-.5669-1.0438-.489-2.1134-.3484-3.1859,.6629-5.1382,1.3681-10.2667,2.681-15.2983,.7407-2.8382,1.7007-5.588,2.6886-8.3453,2.3144-6.4625,5.0657-12.7436,7.6424-19.0972,.2525-.6205,.5382-1.2275,.7309-1.8662,.1406-.4701,.226-.9818,.2079-1.4724-.0884-2.3341-.2132-4.6658-.3409-6.9976-.1217-2.2592-.5041-4.4761-.9304-6.6991-.9312-4.842-1.7505-9.7058-2.5903-14.5636-.127-.7373-.1247-1.4982-.1482-2.2511-.1844-5.6214,.3772-11.1908,1.2063-16.7369,.3462-2.3135,.7725-4.6166,1.1156-6.93,.5933-3.9804,.7989-7.9712,.1459-11.9672-.3144-1.9214-.975-3.7207-2.0234-5.3669-.6395-1.0048-1.331-1.1788-2.322-.4829-1.8775,1.319-3.3363,3.0145-4.3862,5.0735-1.6772,3.2923-2.9077,6.7508-3.9115,10.2899-1.5525,5.476-2.6863,11.0376-3.266,16.7057-.0522,.4986-.1141,.9997-.1451,1.4982-.164,2.5004-.2653,5.0086-.4943,7.5038-.4528,4.9148-.8556,9.8384-1.5026,14.7295-.5903,4.4739-1.5011,8.9039-2.7906,13.2477-.5956,2.0045-1.1519,4.009-2.0982,5.8911-1.0688,2.1239-2.4444,3.9886-4.3325,5.4504-2.1194,1.6379-4.2516,3.2585-6.3703,4.8994-1.6205,1.2539-3.43,2.0695-5.4504,2.4278-.4082,.0726-.8088,.1995-1.2124,.3091-2.0249,.5503-3.9886,.3477-5.8714-.5427-2.9508-1.3945-5.8661-2.8669-8.8359-4.2169-3.6976-1.6803-7.5615-2.7392-11.6725-2.5676-3.5888,.1504-6.9145,1.2562-9.9462,3.1307-.8171,.5042-1.5215,1.3635-1.9871,2.2154-1.0582,1.9312-1.5495,4.0476-1.3598,6.275,.0726,.8571,.5692,1.3794,1.4331,1.4754,.5797,.065,1.1701,.0514,1.7573,.0461,2.4316-.0181,4.8631,.0159,7.2917-.0824,3.2554-.133,6.0687,1.0151,8.6953,2.7755,2.2517,1.5087,4.1473,3.3885,5.6817,5.619,1.6122,2.3446,3.1413,4.7437,4.7928,7.0596,2.0385,2.8609,4.1005,5.6991,6.9243,7.8986,1.6379,1.2774,3.4142,2.0975,5.4527,2.365,.9962,.13,1.9977,.2494,3.0007,.2729,2.0075,.0469,3.303,1.0491,4.0256,2.8533,.5903,1.4747,1.1731,2.9546,1.7029,4.4504,2.291,6.4753,3.9138,13.1381,5.526,19.8062,1.7679,7.3166,3.6039,14.6151,5.3907,21.9271,1.3908,5.6862,3.0498,11.2871,5.102,16.773,.2623,.7014,.486,1.4331,.5979,2.1708,.1716,1.1164-.4656,2.1186-1.3991,2.3839-.8662,.2464-1.8541-.1512-2.3922-.9765-.1353-.2079-.2313-.4437-.3326-.6727-.2343-.5374-.4784-1.0695-.6893-1.6145-1.6931-4.3756-2.9984-8.8752-4.1451-13.414-1.5525-6.1564-3.0446-12.3301-4.4595-18.5205-1.266-5.5411-2.3688-11.1208-3.5835-16.6747-.8738-4.0037-1.7392-8.0127-3.0733-11.8993-.1096-.3167-.198-.6387-.3122-.9501-.7181-1.9372-.7181-1.8851-2.8367-1.7634-3.8178,.2207-7.2372-.7112-10.2508-3.238-3.2501-2.7233-5.9001-5.8986-8.1752-9.4428-1.4928-2.322-3.0582-4.6016-4.6681-6.8449-1.2245-1.7059-2.709-3.1723-4.5011-4.3227-1.9554-1.257-4.046-1.9478-6.3937-1.9244-2.4293,.0234-4.8578-.0469-7.2864-.1194-.7437-.0234-1.4898-.1663-2.226-.2902-1.1315-.1927-1.8934-.8806-2.6598-1.7271-1.7558-1.9289-2.0627-4.0869-1.5472-6.5245,.4339-2.0597,.9153-4.1005,2.1632-5.8344,.5797-.805,1.2298-1.6591,2.0461-2.1708,1.6931-1.062,3.4353-2.1602,5.3076-2.8042,7.0521-2.4225,14.0104-1.8851,20.8001,1.1239,2.8291,1.2539,5.619,2.6016,8.4904,3.7445,1.5366,.6122,3.1927,.9894,4.8283,1.2539,.6682,.1088,1.4512-.3144,2.1451-.5865,.5412-.2131,1.0091-.5949,1.5344-.8518,1.0899-.5321,1.5472-1.2985,1.4822-2.5835-.1769-3.4225-.2184-6.8525-.2834-10.2818-.0363-1.9244-.0053-3.848-.0053-5.7724h-.0053l.0053,.0053h-.0001ZM47.8158,81.4045c-.0364-4.6191-.6318-9.1655-1.5888-13.6756-.6761-3.1859-1.3236-6.3769-2.0412-9.5525-.2367-1.0542-.5669-2.1057-.9933-3.1002-1.4952-3.4819-3.3492-6.7353-6.1836-9.3473-.8893-.8205-1.88-1.4151-3.0502-1.6462-.5617-.1116-1.1753-.1194-1.737-.0208-1.1416,.1974-1.7734,.914-1.7604,2.0928,.0156,1.4202,.1197,2.8431,.2757,4.253,.2028,1.8279,.5772,3.6377,.7281,5.4682,.1248,1.4956,.1248,3.0145,.0234,4.5127-.3692,5.5072-.806,11.0091-1.2169,16.5136-.0182,.2493-.0728,.5011-.0676,.7504,.0859,4.9723-.8451,9.8226-1.7396,14.6782-.0754,.4097-.156,.8201-.2704,1.223-1.321,4.6658-2.3793,9.3937-3.4038,14.1321-.4941,2.2827-.3121,4.396,.546,6.6106,2.4235,6.2524,5.4399,12.2167,8.3965,18.2197,2.59,5.2577,4.9329,10.6272,6.5867,16.2643,.5175,1.7604,.8373,3.5782,1.2663,5.3642,.4472,1.8669,.6032,3.8064,1.4146,5.5827,.2627,.5737,.1872,1.1973-.2002,1.6666-1.8722,2.2592-1.9164,4.9047-1.6902,7.6182,.0416,.5011,.0442,1.0053,.1092,1.5034,.3251,2.4928-.3147,4.8087-1.2923,7.0626-.2002,.4596-.4654,.8957-.6345,1.3628-1.9451,5.3385-3.8668,10.6877-5.817,16.0232-1.6928,4.6349-3.3935,9.2644-5.1252,13.8857-2.4027,6.4164-4.821,12.8267-7.2654,19.225-.5356,1.4021-1.2351,2.7415-1.815,4.1307-.6111,1.4641-1.1493,2.9599-1.7526,4.427-.2184,.5321-.4629,1.0778-.8139,1.5238-.5253,.6621-1.2274,.7483-2.0309,.39-.8711-.39-1.204-.8496-1.1545-1.7271,.0286-.4958,.0832-1.0098,.2392-1.48,.3953-1.1889,.7567-2.4043,1.308-3.523,2.5587-5.1881,4.5584-10.6015,6.5684-16.0126,2.5613-6.8911,5.1149-13.7874,7.6554-20.686,2.023-5.4942,4.0253-10.9938,6.0327-16.4956,.5435-1.4905,.9518-3.0408,1.6279-4.4686,.7255-1.5321,.767-3.108,.5382-4.6689-.4004-2.7467,.0806-5.328,1.0739-7.8563,.2549-.644,.3589-1.2388,.1769-1.9372-.6293-2.4278-1.3158-4.8503-1.7579-7.3143-1.1805-6.5978-4.2411-12.4685-7.0027-18.4555-1.646-3.5706-3.526-7.0339-5.1252-10.6227-1.4614-3.2789-2.7043-6.6575-4.0045-10.0044-.7255-1.8692-.5591-3.8299-.1404-5.7014,.9986-4.4844,1.9138-8.9946,3.2582-13.3981,.4368-1.4361,.6631-2.9342,.9907-4.4036,.8165-3.6792,1.1363-7.4259,1.5732-11.1571,.5461-4.6503,1.1078-9.298,1.3053-13.9846,.1561-3.6818,.1924-7.3403-.4368-10.9961-.3537-2.0564-.4785-4.1569-.6397-6.2419-.0572-.74,.1274-1.4956,.13-2.2459,.0104-1.8954,2.2415-4.1699,4.1449-4.5308,2.5743-.4882,5.0187-.2831,7.1821,1.345,2.0178,1.5163,3.8017,3.256,5.2215,5.3747,2.4547,3.6584,4.2047,7.6051,5.146,11.9023,.2054,.9425,.5695,1.6747,1.4198,2.2407,1.0401,.6933,1.9633,1.5631,2.9332,2.3576,2.3403,1.9214,3.4792,4.4373,3.6405,7.4181,.078,1.4203,.1326,2.8432,.156,4.2661,.0182,1.1606,.4004,2.0149,1.4406,2.7029,.957,.6336,1.7422,1.5449,2.551,2.381,1.4094,1.4566,2.0465,3.2352,2.0256,5.2448-.0104,.9192-.078,1.8387-.1326,2.7548-.1092,1.7528-.2419,3.5026-.3407,5.2554-.104,1.836-.2262,3.6742-.2574,5.5124-.039,2.3393-.026,4.6817,.0182,7.0233,.117,6.1904,.26,12.38,.3927,18.5727,.0078,.418,.0338,.836,.0338,1.2539,0,.808,.3537,1.4308,.9388,1.9735,1.4431,1.3401,2.9851,2.3968,5.0836,2.4119,2.1765,.0181,4.353,.2313,6.5269,.226,2.6315-.0076,5.1148-.7581,7.4967-1.8511,3.5755-1.6409,7.1276-3.331,10.8977-4.5049,2.2494-.6984,4.5169-1.2124,6.8835-1.3454,3.7989-.2101,7.2811,.6908,10.5705,2.5812,3.4739,1.9969,5.424,4.8888,5.5698,8.9114,.0257,.737-.1066,1.4981-.2729,2.2222-.2237,.9735-.8481,1.6515-1.8722,1.7891-.8662,.1164-1.5397,.5949-2.291,.9584-1.6515,.802-3.3129,1.5676-5.1594,1.9025-1.9735,.359-3.9266,.8443-5.8639,1.3764-5.1821,1.4202-9.1427,4.365-11.5478,9.275-.9571,1.9493-2.0517,3.8344-3.1283,5.7225-2.2285,3.9024-5.3047,7.0725-8.6539,10.0248-3.2322,2.8488-6.8805,5.0324-10.7056,6.9561-.5175,.26-1.0766,.517-1.6382,.5865-.8529,.1066-1.1181,.6523-1.2533,1.3371-.3719,1.8881-.7359,3.7755-1.0713,5.6681-1.23,6.9175-2.7433,13.7693-4.457,20.5855-1.9996,7.9447-3.8433,15.9295-5.328,23.9913-.2419,1.3167-.5591,2.6175-.8763,3.9183-.117,.48-.3042,.9524-.5305,1.3938-.3797,.743-1.0323,1.0363-1.8774,.9169-.8503-.1224-1.6278-.8178-1.6486-1.6387-.0182-.7422,.0676-1.5034,.2132-2.2328,1.7214-8.6953,3.7132-17.3316,5.9287-25.9157,.8971-3.4814,1.9502-6.922,2.9124-10.3884,1.5004-5.4058,2.4677-10.9258,3.4792-16.4359,.091-.4928,.2548-.9788,.286-1.4747,.117-1.8329,1.217-2.8639,2.811-3.4739,2.2805-.8753,4.4205-2.0332,6.4254-3.396,4.8028-3.2637,9.3014-6.8631,12.2996-11.9779,1.0583-1.8042,2.0725-3.6326,3.097-5.4549,.2444-.4361,.4447-.8987,.6865-1.3401,3.022-5.5252,7.7074-8.9137,13.7217-10.5282,2.2622-.6077,4.5797-1.0023,6.8601-1.548,1.3809-.3296,2.7483-.7294,4.1035-1.158,.7952-.2517,1.0348-.6878,1.0007-1.5215-.0778-2.0619-.9304-3.718-2.6523-4.8707-3.1103-2.0824-6.4905-3.0355-10.2531-2.4074-3.0763,.514-6.0014,1.5162-8.8668,2.6976-1.5475,.6387-3.0843,1.3144-4.5769,2.0695-3.9005,1.9788-8.0272,2.8745-12.3828,2.6561-2.0049-.0983-4.0019-.3424-6.0042-.5193-1.2013-.1058-2.2805-.5397-3.2426-1.2509-2.2207-1.6462-4.444-3.2872-6.6257-4.9803-.585-.4543-1.1233-1.0234-1.5316-1.6409-2.0412-3.0846-3.6535-6.3642-4.5271-9.9863-.8685-3.5857-1.295-7.2418-1.8177-10.8819-.9439-6.5509-1.1702-13.1638-1.7734-19.746-.1378-1.4929-.0208-3.0093-.0208-4.5153l.0104-.0026h0Zm112.6131-26.2036c0,8.4489-.0287,16.8979,.0128,25.3468,.0181,3.5935-1.1368,3.9519-4.0045,3.9077-5.2766-.0779-10.5524-.1169-15.8282-.1091-7.2894,.0104-14.578,.1272-21.8689,.1091-4.6076-.013-9.216-.2051-13.8237-.283-1.1489-.0208-2.0854-.3843-2.9614-1.1373-2.6062-2.2356-5.2554-4.4192-7.9001-6.6054-2.0619-1.7059-4.0906-3.4611-6.233-5.0579-2.5795-1.924-3.6535-4.4349-3.5416-7.5895,.0754-2.1681,.0104-4.3439,.013-6.5146,.0052-4.7646-.0052-9.5265,.026-14.291,.039-6.0239,.0988-12.0502,.1768-18.0741,.039-3.095,.1404-6.1874,.2132-9.2798,0-.0831-.0208-.1688-.0078-.2519,.3692-2.5705,1.0453-3.674,3.9499-3.9778,1.8253-.1921,3.6824-.0727,5.5259-.0779,8.6356-.0286,17.2711-.0701,25.9044-.0701,6.9583,0,13.9144,.0467,20.8727,.0753,.3356,0,.6712,0,1.0068,.0182,1.3779,.0857,2.6258,.4829,3.6349,1.48,1.2509,1.2359,2.4935,2.477,3.7702,3.6844,1.449,1.3709,2.619,3.0586,4.4807,3.9726,.1406,.0675,.3069,.2181,.3356,.3583,.2577,1.2073,1.4792,1.5241,2.1579,2.3472,.6871,.8308,1.4641,1.615,2.3121,2.2797,1.2925,1.0152,1.8125,2.2044,1.7966,3.8895-.0574,6.4419,.0393,12.8864,.0726,19.3282,.0106,2.1732,0,4.3491,0,6.5224h-.093Zm-8.532,23.8408l.1224,.3609,.195-.1766c-.1224-.0467-.2419-.0909-.3643-.1376-.2993-1.0672-1.1315-1.6177-2.0385-2.0928l.0907,.0883c-.5253-.753-.9698-1.5864-1.9342-1.8929l.0703,.0727c-.6531-.8049-1.2041-1.7111-2.198-2.1732l-.5563-.5453c-.3144-.3817-.6054-.7842-.9486-1.1347-.3772-.3817-.6583-.3531-.8919,.2363-.2608,.6569-.6372,.9893-1.3137,.8205-.6969-.174-.8556-.7166-.746-1.371,.0257-.1636,.0469-.3323,.0385-.4959-.0023-.0701-.0831-.1947-.1345-.1974-.7309-.0364-1.4618-.0701-2.1927-.0389-.0416,0-.0778,.5764-.0831,.8854-.0234,.9893-.5873,1.5034-1.362,1.2047-.5306-.2051-.7392-.6361-.7105-1.1892,.0159-.309,.0446-.618,.068-.927-.3227,.0182-.6425,.039-.9652,.052-.1663,.0051-.3326-.0078-.4989-.013-.5949-.0173-.8957,.2371-.9025,.7633,0,.1662,.0363,.335,.0159,.4959-.0733,.5401-.4837,.875-1.0378,.8673-.5306-.0078-.9388-.3687-.9879-.9295-.0212-.2415,.0469-.4933,.0907-.74,.0756-.4233-.0854-.6751-.5147-.5608-.5956,.161-1.1496,.0778-1.7264-.0649-.099-.0234-.3825,.2596-.39,.4076-.0136,.322,.1451,.6517,.1451,.9763,0,.5582-.4157,.9139-.972,.9035-.5571-.0104-.9758-.3609-1.0121-.8932-.0181-.2441,.0318-.4959,.0884-.7374,.133-.5712-.0567-.7738-.6342-.618-.2396,.0649-.4913,.1194-.7362,.1116-2.3114-.0701-4.6205-.1739-6.9326-.2233-.7332-.0156-1.4867,.2181-2.1995,.1169-1.1678-.1662-2.2932-.1013-3.4588,0-1.2169,.1064-2.4625-.1143-3.6976-.1896-.0801-.0052-.1716,.0182-.2419,.0571-.65,.3583-1.2608,.0961-1.9244-.0182-.9539-.1661-1.9735-.4907-2.9123,.161-.1247,.0857-.3507,.1429-.4785,.0909-1.4686-.6024-2.9274-.3947-4.3892,.0078-.0726,.0207-.1663-.0182-.2441-.0468-1.1262-.4258-2.2623-.4959-3.4225-.1324-1.1519,.3583-2.2675-.4232-3.4217-.122-.1587,.0415-.3749,.0208-.4709,.1169-.1587,.1609-.2441,.3972-.3613,.6023,.2003,.0624,.4444,.2337,.5956,.174,1.3673-.5478,1.4013-.5738,1.8828,.7244,.1973,.5349,.4467,.862,1.0272,.9062,.551,.0441,.8964,.3817,1.1564,.8438,.1617,.2882,.3069,.6205,.5518,.8179,1.6175,1.3087,3.2479,2.6068,4.907,3.8662,.52,.3947,1.1436,.6543,1.7188,.9789l-.0597-.0441c.907,1.023,.9516,1.0905,1.7732,.5686,.6372-.4051,1.1413-.5842,1.8125-.1039,.9153,.6517,1.8722,.6517,2.7929-.0389,.4467-.335,.9123-.4051,1.3885-.0754,1.0007,.6959,2.0045,.766,3.0211,.0441,.4603-.3246,.9236-.3583,1.3915-.0234,.9932,.7141,1.9841,.8257,2.9954,.026,.4475-.3531,.91-.3401,1.3885-.0286,.9932,.6465,1.9917,.8543,3.006,.0286,.4475-.3636,.9282-.3531,1.3809-.0104,.9932,.7582,1.9765,.8127,2.9773,.0182,.4444-.3531,.9153-.3661,1.3885-.0441,.9932,.675,1.9871,.8465,3.0037,.0364,.4444-.3531,.9388-.3817,1.3779-.013,.8995,.7504,1.8647,.7504,2.777,.148,.6531-.431,1.1572-.4778,1.8178-.0364,.811,.5401,1.7316,.6751,2.5691,.0441,.6349-.4778,1.1549-.47,1.8148-.0389,.8171,.5297,1.7558,.6387,2.5744,.0337,.6531-.4829,1.1678-.444,1.8178-.0337,.9335,.5868,1.8669,.5453,2.8163-.1065,.3847-.2622,.941-.2726,1.4195-.3972l-.0023-.0026h0Zm-36.6495-13.4861c5.6953,0,11.3868,.0052,17.0821,0,2.681-.0026,5.359-.0208,8.0399-.0441,.6009-.0051,.8995-.3219,.9282-.9218,.0212-.418,.0128-.836,.0128-1.2541-.0076-14.7116-.0181-29.4259-.028-44.1375,0-.5842-.003-1.171-.0106-1.7552-.0106-1.0074,.0438-1.3969-1.5004-1.4229-1.4225-.0234-2.845-.0415-4.2675-.0363-7.0256,.0208-14.0497,.0675-21.0753,.0727-6.5222,.0026-13.0437-.0415-19.5651-.0571-1.6697-.0052-3.3386-.0104-5.006,.0363-.8084,.0234-1.0425,.2519-1.0476,1.0827-.0156,2.085,.0364,4.1699,.0468,6.2549,.0754,12.367,.143,24.7367,.221,37.1037,.0078,1.4202,.0519,2.8405,.0859,4.2608,.0106,.4856,.2781,.7815,.746,.8413,.4966,.0624,1.0015,.0935,1.5004,.0961,2.5926,.0182,5.1957-.1116,7.7777,.0598,5.3597,.3531,10.7081,.0389,16.0625-.1766l-.003-.0026h0Zm36.8233,6.4471c-.0544,.1584-.1119,.3142-.161,.4726-.099,.3193,.099,.4518,.359,.4622,.1534,.0052,.3038-.1324,.4656-.1662,1.1648-.2466,1.5729,.0441,1.6069,1.1555,.0076,.2466-.099,.5011-.0756,.7426,.0106,.1116,.1927,.2778,.3175,.2986,.4966,.0883,1.2509-.4025,1.3809-.8595,.1814-.6283,.0227-1.1865-.4558-1.5215-.1995-.1402-.4648-.1973-.647-.3531-.5049-.4336-.5049-1.0879,0-1.5163,.1844-.1558,.4444-.2233,.6576-.3506,.4082-.2466,.4943-.6569,.4762-1.0827-.0212-.5116-.2131-.8698-.7052-1.1996-1.1255-.7608-1.0839-1.1347-.0181-2.0356,.8609-.727,.8821-1.4852,.0605-2.22-.0605-.0545-.1565-.0701-.2162-.1246-.8738-.7815-.8579-1.1892,.0703-1.9733,.062-.0519,.1429-.0857,.2207-.1169,.5986-.2518,.5178-.7945,.5336-1.2827,.0151-.4621-.263-.6777-.6478-.9373-1.0506-.7088-1.0741-1.197-.2525-1.9162,1.2169-1.0671,1.2094-1.5397-.0491-2.6146-.6372-.5427-.6765-1.1606-.0884-1.6903,.1194-.1091,.3038-.1428,.4316-.2467,.8163-.6647,.8269-1.5812,.0257-2.2459-.1897-.1583-.4339-.2544-.6085-.4258-.3741-.3661-.3583-.9502,.0318-1.3372,.1738-.1714,.4157-.2752,.6032-.4362,.8035-.6829,.7513-1.4488-.1383-2.1889-.127-.1064-.2857-.1766-.3998-.2908-.4943-.4908-.4966-1.0672,.0076-1.5215,.1822-.1636,.4475-.2363,.6342-.3973,.6871-.5972,.6553-1.5112-.065-2.1058-.1247-.1039-.322-.1194-.4444-.2258-.6372-.5401-.6629-1.1866-.0726-1.6981,.1217-.1065,.3122-.1324,.4422-.2337,.7483-.5816,.8397-1.4618,.195-2.0979-.2321-.2285-.5646-.3583-.7989-.5868-.3741-.3661-.3507-.9529,.0446-1.3372,.1738-.1688,.421-.2623,.6107-.4181,.6818-.5608,.7158-1.5189,.0703-2.0876-.1844-.1636-.4422-.2466-.6213-.4128-.5019-.4726-.4913-1.0437,.0106-1.5137,.1194-.1116,.2857-.1739,.4104-.283,.9939-.8465,.9803-1.5008-.0385-2.3135-.1927-.1532-.4679-.2622-.5699-.4621-.387-.7712-.876-1.397-1.7029-1.7579-.2706-.1169-.5094-.4414-.6342-.7296-.3205-.7348-.8042-1.2151-1.5608-1.5293-.325-.135-.6107-.5686-.7385-.9295-.2207-.6206-.585-.9685-1.2222-1.1061-.5457-.1169-.8239-.5141-.9304-1.0542-.0469-.2414-.1096-.4907-.2268-.7036-.1791-.322-.9335-.4959-1.3726-.3479-.3923,.1324-.4059,.4726-.421,.8049-.0499,.9581-.0106,1.0074,.9335,1.3813,.2283,.0909,.4679,.174,.6629,.3168,.4679,.3427,.4422,1.2463-.0438,1.5189-.2109,.1194-.4762,.1402-.7075,.2259-.7415,.2726-.8949,.4855-.8609,1.2592,.0234,.5167,.1043,.9997,.7831,1.0645,.6364,.0598,1.1519,.322,1.1436,1.062-.0076,.7323-.4913,.9789-1.1519,1.0413-.226,.0207-.6054,.1298-.6342,.2596-.1043,.4777-.1565,.9866-.1066,1.4722,.0567,.5531,.582,.4622,.972,.5427,.1618,.0311,.3175,.1039,.4603,.1844,.6137,.3453,.6682,1.3138,.0831,1.6721-.2048,.1273-.4573,.2441-.6886,.2467-.6425,.0052-.8843,.309-.8768,.9218,.0136,.8672,.0446,.9295,1.0196,1.3242,.1534,.0624,.3326,.0909,.4603,.1896,.3537,.2674,.5956,.6466,.4369,1.0775-.099,.2752-.3613,.5271-.6137,.6985-.1897,.1298-.4807,.1116-.7226,.1714-.3802,.0961-.5412,.3973-.5412,.74,0,.4051,0,.8595,.1791,1.1944,.1149,.2129,.5646,.2441,.8639,.3531,.0778,.0286,.158,.0494,.2366,.0831,.4286,.1818,.6447,.5141,.6319,.9737-.0136,.4622-.2472,.7685-.6999,.9165-.3772,.1221-.9516,.1766-1.071,.4336-.1927,.4076-.1587,.9789-.0574,1.4437,.0446,.2025,.489,.3298,.7619,.47,.1459,.0753,.3227,.0883,.4709,.1558,.421,.1947,.6289,.5323,.585,.997-.0446,.457-.2887,.7738-.7362,.8984-.2388,.0675-.4989,.0753-.7332,.1531-.1376,.0468-.3409,.1766-.3484,.2804-.0363,.4882-.0907,.9997,.0257,1.4592,.0499,.1896,.523,.2596,.7936,.4051,.2834,.1558,.5903,.2986,.8186,.5193,.3409,.3324,.2373,1.1165-.1686,1.3217-.291,.1453-.6243,.2285-.9493,.2752-.3976,.0597-.6054,.3012-.6319,.6466-.031,.4102-.0385,.8516,.0778,1.2385,.1481,.4933,.6893,.3298,1.0589,.4622,.5926,.2129,.8579,.5946,.8057,1.1035-.0469,.4726-.3462,.7062-.7747,.862-1.1753,.4285-1.3212,.6388-1.1784,1.6825,.0469,.3298,.1481,.644,.585,.6777,.2472,.0182,.4996,.0649,.7339,.1429,.4467,.1531,.65,.5011,.6289,.9633-.0204,.4596-.2494,.7842-.7045,.914-.1587,.0441-.328,.0701-.4943,.0701-.5329,0-.6969,.296-.7256,.7815-.0567,1.0204-.0673,1.0152,1.0612,1.4799,.226,.0935,.4528,.2207,.6342,.3791,.4271,.3687,.3227,1.2722-.192,1.5085-.2887,.1324-.6319,.1558-.9569,.2051-.3877,.0571-.5828,.2752-.5903,.6569-.0076,.3349-.003,.6673,.0023,1.0023,.0083,.3868,.2086,.5271,.5903,.6283,1.6281,.4258,1.6901,.6309,.7936,2.1006-.0786,.1298-.1822,.3531-.1277,.431,.13,.1869,.4082,.4726,.5178,.431,.2963-.1142,.5223-.3998,.8035-.5738,.3847-.2415,.777-.2493,1.1617,.0415,.3855,.2909,.4369,.6803,.3719,1.1113-.0128,.0805-.065,.1558-.0831,.2363-.1572,.6803,.0771,.9408,.7052,.7815,1.2267-.3116,1.7369,.1454,1.5291,1.3735l.0045,.0078h0Z" fill="#19132d"></path><path d="M137.894,74.8406c.5072-.0571,.9932,.3012,1.0975,.8075,.127,.618-.3046,1.2177-.8972,1.249-.5797,.0285-1.1625-.5011-1.1625-1.0594,0-.4648,.4573-.9399,.9622-.9945,0,0,0-.0026,0-.0026Zm-17.3936-.0181c.6009,.0259,1.1073,.6128,1.0272,1.1787-.0703,.4908-.5518,.9114-1.0355,.9088-.5949-.0026-1.0786-.5634-1.0166-1.1762,.0469-.4778,.5593-.9321,1.0272-.9113h-.0023Zm-13.2515,2.0746c-.5979-.0779-1.0635-.7088-.9259-1.2593,.1202-.4803,.6455-.8595,1.1209-.8049,.6137,.0701,1.0582,.6803,.9206,1.2619-.1194,.5011-.6266,.8646-1.1156,.8023Zm6.6333-4.2816c.5646,0,1.1187,.5712,1.0952,1.1372-.0181,.4699-.4943,.9062-1.0091,.9243-.5903,.0208-1.1496-.5531-1.0793-1.1035,.065-.5115,.5276-.9555,.9932-.958Zm14.2296,1.2307c-.0627,.4648-.5624,.8413-1.0899,.8179-.6213-.0259-1.071-.5816-.9645-1.1892,.0907-.5037,.585-.8984,1.0635-.849,.5797,.0597,1.0657,.6569,.9909,1.2203Zm-26.2793-.0156c-.0522,.4336-.6243,.8802-1.0899,.849-.6001-.0389-1.1126-.6465-1.003-1.1917,.093-.4648,.6311-.9036,1.0763-.875,.5669,.0364,1.0839,.6543,1.0166,1.2152v.0026Zm43.5247-1.332c.1738,.174,.3484,.3505,.5223,.5245-.13,.3817-.2207,.7841-.4029,1.1425-.2003,.3946-.5797,.5478-1.0249,.4907-.4936-.0623-1.0007-.5348-.8972-.9685,.0839-.3531,.328-.7608,.6243-.9477,.3175-.1999,.78-.1714,1.1784-.2415Zm-29.2226,2.3524c.6289,.0259,1.0529,.5348,.972,1.1632-.065,.5115-.5125,.8983-1.0143,.875-.6085-.0286-1.0476-.5582-.9773-1.1762,.0574-.5089,.5019-.8854,1.0166-.8646,0,0,.003,.0026,.003,.0026Zm9.7172,.9996c.0128,.509-.3847,.9945-.8556,1.0438-.5639,.0597-1.1519-.4388-1.1882-1.0075-.0363-.5582,.5404-1.0827,1.136-1.0334,.4837,.039,.8949,.4882,.9078,.997Zm4.3839,.0987c-.0385,.5401-.4339,.9348-.9486,.9425-.5986,.0104-1.0899-.5063-1.0559-1.1113,.0287-.5141,.4391-.9113,.9645-.9321,.6115-.0234,1.0816,.4751,1.0401,1.1009Zm12.188-1.1009c.6243,.0311,1.0242,.5426,.9312,1.1944-.0733,.5141-.5359,.8932-1.0302,.8438-.6137-.0597-1.037-.5972-.9516-1.2022,.0673-.4856,.5412-.862,1.0506-.8386v.0026h0Zm-26.3806-2.3576c-.6085-.0494-1.0166-.5868-.9206-1.21,.0778-.4959,.554-.8568,1.0665-.8101,.6054,.0571,1.0166,.5972,.9206,1.2152-.0786,.5011-.5359,.8465-1.0635,.8049h-.003Zm-6.3809,6.5614c-.6221,.0623-1.0975-.3791-1.1005-1.0178-.0023-.5401,.3673-.9529,.8821-.9789,.6342-.0337,1.1202,.4103,1.1179,1.023,0,.5219-.3719,.9243-.8972,.9763l-.0023-.0026Zm4.1239-1.9993c.6425-.0649,1.1701,.3791,1.1859,.9945,.0128,.4985-.393,.9503-.9078,1.0126-.6213,.0753-1.1542-.3765-1.1806-.997-.0204-.5011,.3877-.9608,.9002-1.01,0,0,.0023,0,.0023,0Zm9.8918,1.0827c-.031,.5297-.4165,.9062-.944,.9244-.6213,.0208-1.0816-.4518-1.0559-1.0802,.0234-.5296,.4036-.8983,.9493-.9165,.6296-.0234,1.0869,.4466,1.0506,1.075v-.0026Zm8.789,.026c-.0438,.5037-.4989,.9191-1.0038,.9165-.6032-.0026-1.1209-.5478-1.071-1.1269,.0514-.5998,.6236-.997,1.266-.8776,.4913,.0909,.8533,.5764,.8088,1.0905v-.0026Zm-25.0465-7.6856c.5979,.0441,1.0582,.6362,.9546,1.223-.0862,.4751-.5986,.8465-1.1028,.7997-.5903-.0545-1.0763-.662-.9675-1.2125,.0915-.4543,.6296-.849,1.1156-.8127v.0026Zm38.2043,7.5662c.0128,.4986-.3953,.9581-.9025,1.0204-.6107,.0727-1.1625-.3868-1.1912-.9944-.0227-.4882,.393-.9555,.9025-1.0153,.6243-.0727,1.1731,.3817,1.1912,.9893Zm-42.7031-7.5505c.6349-.0104,1.1005,.4621,1.0642,1.0749-.0317,.5245-.4059,.888-.9524,.9218-.6236,.0389-1.071-.4206-1.0476-1.0723,.0181-.5245,.4157-.9165,.9357-.9243Zm32.8242,8.5631c-.6107-.0624-1.0348-.605-.9388-1.1996,.0809-.4829,.5518-.8335,1.0771-.7971,.6054,.0416,1.0219,.5816,.9229,1.1996-.0809,.5037-.5434,.8516-1.0612,.7971h0Zm-24.0163-6.5665c-.6402-.0311-1.0869-.5141-1.0355-1.1217,.0446-.4881,.4739-.8776,1.0015-.901,.6009-.0286,1.0295,.4648,.9879,1.1295-.0363,.5712-.4082,.9165-.9539,.8906v.0026h0Zm-7.0808,6.6002c-.1663-.27-.424-.5245-.4815-.8179-.13-.6777,.2366-1.1424,.8586-1.2151,.5094-.0597,.9902,.2674,1.0967,.7478,.1353,.605-.1429,1.0723-.8088,1.2593-.2207,.0623-.4807-.0078-.7226-.0182l.0597,.0441s-.0023,0-.0023,0Zm43.3161-3.8972c-.065,.3193-.0854,.6543-.2003,.9529-.2441,.6336-.814,.8932-1.3575,.6647-.4732-.1999-.712-.6803-.6001-1.2022,.1035-.4856,.5457-.8413,1.0869-.7556,.3923,.0624,.7619,.2701,1.1413,.4128l-.0703-.0726h0Zm-14.2522,1.6954c-.5775,.0416-1.1028-.4803-1.0846-1.0801,.0159-.5063,.4369-.9373,.9418-.9581,.5072-.0208,.9773,.3453,1.0688,.8283,.1141,.5998-.3175,1.1632-.9259,1.2074v.0026Zm-35.1121-4.3959c-.6372-.013-1.0665-.4778-1.0219-1.1087,.0333-.4986,.4497-.8725,.9849-.888,.6168-.0181,1.0484,.4622,.9992,1.1088-.0416,.5453-.424,.8983-.9622,.888Zm13.1419,4.4011c-.6115-.0182-1.0975-.5349-1.0559-1.1243,.034-.4933,.458-.8828,.9909-.9165,.5956-.0364,1.0582,.4726,1.0113,1.1113-.0416,.5504-.4422,.9451-.9493,.9295,0,0,.003,0,.003,0Zm8.6484-6.4575c.5775-.0519,1.0816,.3947,1.1338,1.0048,.0393,.4856-.3197,.953-.8035,1.0438-.616,.1169-1.1625-.2571-1.2403-.849-.0801-.605,.3303-1.1477,.9131-1.1996h-.003Zm-17.3852,4.4167c.6364,.0467,1.068,.5634,.9803,1.171-.0733,.4933-.5359,.888-1.0302,.875-.5956-.0156-1.0348-.5531-.9645-1.184,.0567-.5141,.5094-.8983,1.0143-.862Zm37.1295-2.2122c.5986-.0104,1.0771,.4648,1.0922,1.0827,.0136,.4908-.3847,.8854-.9357,.9295-.6349,.0494-1.1103-.4154-1.0635-1.0412,.0416-.5531,.4263-.9633,.91-.971h-.003Zm-8.6091-.0104c.582,.0701,1.0348,.6777,.9357,1.2567-.0778,.4621-.6137,.8335-1.1209,.7789-.616-.0675-1.0733-.6725-.9304-1.2307,.127-.4985,.6342-.8646,1.1156-.8049Zm-13.2855,.013c.5752-.0364,1.0453,.4596,1.0431,1.1061,0,.5219-.4082,.9088-.9471,.9035-.5351-.0051-.9932-.3583-1.071-.8283-.0937-.5634,.3847-1.1425,.9728-1.1814,0,0,.0023,0,.0023,0Zm7.5955-1.2282c.0393,.5427-.3144,1.0204-.7982,1.0775-.6137,.0727-1.1625-.3713-1.2041-.971-.0416-.5843,.4868-1.1139,1.0899-1.0958,.4913,.0156,.8738,.4284,.9123,.9893Zm-19.6921,2.2641c.031,.5348-.3409,.9503-.8715,.9737-.6576,.0286-1.1466-.4103-1.1285-1.0075,.0181-.5218,.39-.9399,.8919-1.0023,.585-.0726,1.0688,.3791,1.1081,1.0386v-.0026Zm4.4157,.0415c.0181,.5089-.3643,.8906-.9236,.9322-.6447,.0467-1.1073-.4076-1.0635-1.0412,.0393-.5531,.4165-.9608,.9047-.9737,.5956-.0156,1.0635,.4518,1.0846,1.0853,0,0-.0023-.0026-.0023-.0026Zm13.1132-.096c.0597,.5218-.291,.9659-.8163,1.0307-.6319,.0779-1.1602-.3531-1.1678-.9503-.0076-.5323,.3432-.9893,.8216-1.0672,.5646-.0935,1.0922,.3557,1.1648,.9893,0,0-.0023-.0026-.0023-.0026Zm11.1427,.1116c-.0265-.6283,.4626-1.145,1.0423-1.0957,.5049,.0415,.8715,.4102,.9493,.9555,.0726,.5115-.2834,.9997-.78,1.0672-.6168,.0831-1.1859-.3531-1.2094-.927h-.0023Zm-15.5349,4.2764c.0287,.5245-.3379,.9944-.8163,1.0463-.6009,.0649-1.136-.3635-1.1958-.9581-.0574-.579,.452-1.062,1.0914-1.0334,.5155,.0208,.8919,.4077,.9206,.9478,0,0,0-.0026,0-.0026Zm7.6401-.9503c.6266-.0494,1.1519,.3868,1.1723,.9763,.0189,.4933-.3613,.9295-.876,1.0075-.6062,.0909-1.1179-.3453-1.1496-.9737-.0227-.5167,.3568-.9711,.8503-1.01h.003Zm13.3059,.0026c.6372,.039,1.0793,.5427,.9985,1.1372-.0703,.5063-.486,.8517-1.0295,.849-.6115,0-1.0431-.5063-.9803-1.145,.0514-.5245,.4754-.875,1.0113-.8413Zm9.5849-.0701c.0204,.4804,.1119,.9711,.0416,1.4385-.065,.4466-.4497,.6413-.91,.618-.5412-.0286-.944-.3713-1.0038-.875-.0522-.4441,.1013-.8673,.5253-.9867,.452-.1272,.9539-.0779,1.4354-.1039l-.0915-.0883,.003-.0026Zm2.356-14.0184c-.1406,.5713-.7619,.9295-1.3106,.7556-.4633-.148-.8118-.6621-.7543-1.1087,.0703-.5608,.6999-1.0335,1.2116-.9114,.588,.1402,.9834,.7296,.8503,1.2671l.003-.0026Zm-3.0997-38.4486c.5744,.0727,.9879,.7037,.8526,1.3035-.1119,.5037-.6372,.8802-1.0975,.7868-.613-.1221-1.0242-.7245-.8783-1.2905,.1194-.4596,.6787-.8568,1.1232-.7998Zm2.0748,2.2278c.6032,.0104,1.1028,.5687,1.0348,1.1529-.0567,.4959-.52,.8905-1.0348,.8802-.582-.0104-1.1051-.5816-1.0476-1.1477,.0438-.444,.5775-.8958,1.0476-.888v.0026Zm.003,13.107c.5979,.013,1.0998,.5686,1.037,1.1529-.0514,.4907-.517,.8828-1.0348,.875-.5956-.0078-1.1051-.5661-1.0401-1.1398,.0522-.457,.5692-.8984,1.0401-.888h-.0023Zm.1013,10.7287c-.6168,.0416-1.1648-.457-1.1285-1.0256,.031-.4908,.4701-.9659,.9335-1.0048,.5563-.0468,1.102,.4699,1.1255,1.0671,.0212,.4908-.3998,.927-.9282,.9633,0,0-.0023,0-.0023,0Zm.9304-5.4396c.0605,.6023-.4497,1.1684-1.037,1.1554-.4868-.0129-.9471-.4336-1.0272-.9373-.0778-.4881,.2834-.9893,.7959-1.1035,.6001-.1324,1.2116,.2934,1.2683,.8854Zm1.2094,23.1372c.6372,.0545,1.0612,.5764,.9652,1.1943-.0786,.4986-.5571,.8958-1.0431,.8673-.5956-.0338-1.0325-.5894-.9569-1.21,.0627-.5011,.5412-.8958,1.0348-.8543v.0026h0Zm-2.1398-8.8826c-.619,.0441-1.1338-.4233-1.1444-1.0412-.0106-.483,.421-.927,.9388-.9685,.619-.0493,1.1549,.4388,1.1338,1.0283-.0181,.5193-.424,.9451-.9282,.9815Zm.9388-5.3462c-.0234,.5115-.4399,.901-.9803,.9218-.619,.0234-1.1466-.4908-1.0975-1.0672,.0438-.5141,.4679-.9218,.9803-.9425,.5956-.0234,1.1262,.5011,1.0998,1.088h-.0023Zm-.003-22.0078c.0499,.5089-.3016,.9815-.8163,1.1035-.5639,.1324-1.1859-.3246-1.2638-.927-.062-.47,.328-.984,.8269-1.0958,.5744-.1272,1.1965,.3298,1.2532,.9192Zm-1.1776,34.0269c.5873-.0727,1.136,.3973,1.1753,1.0075,.031,.5037-.3643,.9425-.8949,.9918-.6447,.0623-1.1882-.3868-1.1829-.9737,.0053-.4959,.4187-.9659,.9025-1.0256h0Zm3.3439-31.7576c.0076,.5297-.3484,.9452-.8662,1.0075-.616,.0779-1.1103-.3557-1.133-.9945-.0189-.5323,.3432-.9607,.8549-1.0048,.6319-.0571,1.1338,.3765,1.1421,.9893l.0023,.0026h0Zm-.0076,22.1143c-.1013,.47-.6402,.8465-1.1209,.7841-.5903-.0753-.9985-.6932-.8579-1.2956,.1172-.4986,.6447-.8776,1.1073-.7893,.6115,.1142,1.0015,.6958,.8715,1.3008Zm-4.3892-.3142c.0416,.4648-.3825,1.0386-.8171,1.1061-.5563,.0857-1.1776-.4206-1.2192-.9918-.0363-.4778,.356-.9918,.8375-1.1009,.5382-.1221,1.1436,.3765,1.1988,.9893v-.0026Zm1.1542-18.6374c-.5329-.0312-.9728-.4336-1.0007-.9192-.037-.5634,.5434-1.158,1.0839-1.1139,.5699,.0467,1.0635,.6466,.9962,1.21-.0544,.4622-.5669,.8543-1.0771,.8231h-.0023Zm-3.1935,1.2515c-.0385-.4726,.3719-.9659,.8685-1.0437,.6039-.0961,1.1549,.3687,1.1678,.9815,.0106,.5141-.39,1.0282-.8397,1.0827-.5616,.0649-1.1466-.4336-1.1965-1.0205h0Zm5.3831,1.0023c-.6032-.0468-1.0196-.5816-.9418-1.2177,.0605-.5038,.5306-.8803,1.0431-.8309,.6523,.0597,1.0582,.5686,.9516,1.1944-.0854,.5037-.5669,.8932-1.0506,.8543h-.0023Zm-5.365-5.341c-.0597-.4933,.3023-.9607,.8171-1.0542,.616-.1116,1.1466,.3012,1.1882,.9218,.034,.5401-.3091,1.0074-.7906,1.0723-.6009,.0805-1.1413-.3376-1.2116-.9399h-.003Zm6.4179,30.6047c-.0438,.6258-.5744,1.0593-1.1701,.9555-.4807-.0831-.8269-.5296-.8269-1.0645,0-.5245,.39-.9192,.9176-.9373,.6553-.0208,1.1209,.431,1.0793,1.0437v.0026Zm-5.2289,.9555c-.5956,.0675-1.1209-.3609-1.1889-.9685-.0544-.4908,.3122-.9373,.8405-1.0256,.6266-.1039,1.1436,.3168,1.1595,.9399,.0128,.5479-.3356,.9997-.814,1.0542,0,0,.003,0,.003,0Zm-.167-15.1166c.5306,0,.9524,.3791,.9803,.8853,.037,.6596-.4134,1.1685-.9985,1.1269-.6032-.0441-1.0552-.5634-1.006-1.158,.0393-.4751,.4913-.8516,1.0242-.8542Zm5.399-20.8524c.0151,.5141-.3643,.8984-.9206,.9321-.6478,.0416-1.1187-.4154-1.0741-1.0386,.0385-.5504,.4134-.9529,.91-.9737,.6032-.0259,1.0657,.4336,1.0869,1.0776l-.0023,.0026h0Zm-5.3884-1.0723c.585,.013,1.0166,.5297,.9781,1.171-.031,.5063-.4762,.8724-1.0143,.836-.5487-.0389-.9622-.4103-.9985-.8932-.0469-.6128,.4316-1.1269,1.0325-1.1113l.0023-.0026h0Zm-1.0529,14.1897c-.0287-.5816,.5276-1.1347,1.0998-1.0931,.489,.0364,.8843,.4543,.9388,.9918,.0522,.5037-.3432,1.023-.8163,1.0724-.6085,.0649-1.1965-.3999-1.2222-.9711Zm2.0257,17.3991c.0544,.5297-.3016,.9815-.814,1.0282-.6372,.0597-1.1678-.3609-1.1935-.9451-.0234-.4986,.3462-.9581,.8428-1.0464,.5903-.1064,1.0967,.3142,1.1648,.9633h0Zm3.5207,1.0204c-.6553,.0493-1.1285-.3791-1.1073-1.0023,.0181-.5453,.39-.9607,.8866-.9893,.6213-.0338,1.0869,.3973,1.1179,1.036,.0257,.5219-.3409,.9114-.8972,.9529v.0026h0Zm-.2547-15.083c.6213-.0571,1.1156,.3687,1.1496,.9919,.028,.5245-.328,.9373-.8609,.9996-.6319,.0727-1.1232-.3479-1.1368-.9788-.0128-.5427,.3439-.9659,.8481-1.0127h0Zm-4.1504,.0052c.5797,.0441,.9803,.6076,.879,1.2334-.0809,.4907-.5616,.8205-1.0869,.7503-.5276-.0727-.8972-.4673-.9131-.9763-.0151-.5998,.4921-1.0542,1.1209-1.0075Zm5.2917,5.437c-.0522,.6361-.5873,1.0827-1.1625,.9711-.4807-.0935-.8163-.5323-.8239-1.075-.0076-.6075,.5359-1.0437,1.1595-.9348,.5306,.0935,.8715,.5193,.8269,1.0386Zm-.9773-9.8588c.5903,.0493,1.0242,.5686,.9856,1.1787-.0318,.4752-.4868,.8465-1.0227,.8361-.6266-.013-1.0657-.5323-.9667-1.1399,.0854-.5193,.5382-.914,1.0038-.8776,0,0,0,.0026,0,.0026Z" fill="#19132d"></path></svg> 